<?xml version="1.0" standalone="no"?>
<!DOCTYPE svg PUBLIC "-//W3C//DTD SVG 20010904//EN"
 "http://www.w3.org/TR/2001/REC-SVG-20010904/DTD/svg10.dtd">
<svg version="1.0" xmlns="http://www.w3.org/2000/svg"
 width="400.000000pt" height="400.000000pt" viewBox="0 0 400.000000 400.000000"
 preserveAspectRatio="xMidYMid meet">
<metadata>
Created by potrace 1.11, written by Peter Selinger 2001-2013
</metadata>
<g transform="translate(0.000000,400.000000) scale(0.100000,-0.100000)"
fill="#000000" stroke="none">
<path d="M1425 3985 c-11 -9 -46 -40 -77 -71 l-56 -56 9 42 c5 24 8 47 7 52
-5 13 -111 -60 -184 -126 -109 -99 -220 -265 -259 -388 -11 -37 -13 -39 -14
-15 -2 43 -18 32 -64 -40 -48 -76 -83 -153 -102 -225 -12 -50 -13 -248 -1
-323 17 -103 39 -199 52 -230 19 -47 18 -49 -16 -25 l-29 21 5 -52 c5 -45 3
-54 -19 -78 -34 -36 -45 -101 -44 -255 2 -130 2 -132 36 -191 19 -33 58 -90
86 -127 29 -36 73 -102 98 -145 69 -118 103 -141 172 -119 18 6 23 -3 48 -80
37 -113 52 -149 110 -264 79 -153 152 -244 265 -330 l33 -25 2 -98 c2 -94 1
-100 -23 -119 -14 -11 -45 -38 -70 -60 -78 -68 -224 -175 -277 -202 -46 -23
-52 -24 -64 -10 -11 13 -25 15 -67 10 -30 -4 -62 -10 -71 -15 -9 -5 -41 -12
-71 -15 -379 -45 -513 -85 -647 -193 -79 -64 -193 -196 -193 -225 0 -4 900 -8
2000 -8 l1999 0 -30 52 c-45 78 -86 128 -143 177 -79 67 -230 134 -356 157
-14 2 -36 7 -48 10 -13 2 -43 7 -65 10 -23 3 -51 7 -62 9 -11 2 -58 7 -105 10
-47 4 -100 11 -118 17 -38 12 -41 12 -105 23 -31 5 -52 4 -61 -4 -11 -9 -31 0
-94 42 -118 79 -289 226 -294 252 -3 12 -3 58 -1 101 3 78 4 80 41 109 85 69
138 124 183 193 65 99 140 257 180 377 18 55 34 101 34 102 1 2 15 -1 32 -6
55 -16 86 10 158 129 36 59 72 113 82 121 20 17 93 130 118 184 30 65 24 319
-9 384 -14 27 -67 56 -80 44 -3 -3 -1 10 4 28 l10 34 -30 -35 c-36 -42 -37
-38 -9 20 58 119 85 258 76 378 -7 77 -13 122 -23 154 -3 9 -7 25 -9 35 -2 10
-12 47 -21 83 l-18 64 -11 -34 -11 -34 -17 80 c-20 94 -21 96 -42 154 -23 65
-65 147 -81 161 -12 9 -14 5 -14 -24 0 -20 -5 -39 -10 -42 -6 -4 -10 -3 -9 2
4 14 -38 96 -79 156 -44 65 -124 151 -183 198 l-39 31 7 -33 6 -32 -29 30
c-41 43 -165 117 -173 104 -4 -7 -13 -3 -24 9 -16 19 -31 20 -456 20 l-439 0
-33 -31 -34 -32 -3 32 c-2 17 -7 31 -12 31 -5 0 -28 -19 -50 -42 -42 -45 -44
-43 -28 21 4 21 -23 24 -47 6z"/>
</g>
</svg>
